<?xml version="1.0" standalone="no"?>
<!DOCTYPE svg PUBLIC "-//W3C//DTD SVG 20010904//EN"
 "http://www.w3.org/TR/2001/REC-SVG-20010904/DTD/svg10.dtd">
<svg version="1.0" xmlns="http://www.w3.org/2000/svg"
 width="32.000000pt" height="32.000000pt" viewBox="0 0 32.000000 32.000000"
 preserveAspectRatio="xMidYMid meet">

<g transform="translate(0.000000,32.000000) scale(0.100000,-0.100000)"
fill="#ffffff" stroke="none">
<path d="M8 173 c1 -82 5 -154 7 -160 7 -19 105 -17 105 1 0 9 -12 16 -32 18
l-33 3 0 143 0 142 -25 0 -25 0 3 -147z"/>
<path d="M199 305 c-66 -36 -79 -197 -23 -265 25 -29 54 -37 89 -24 21 8 55
76 55 109 0 38 -17 30 -23 -11 -12 -72 -64 -97 -92 -44 -19 37 -20 140 0 186
19 47 55 45 70 -3 11 -39 25 -43 25 -8 0 27 -40 75 -62 75 -7 -1 -25 -7 -39
-15z"/>
</g>
</svg>
