<svg xmlns="http://www.w3.org/2000/svg" stroke="#000" stroke-width="0" viewBox="0 0 20 20">
    <g fill="#787878">
        <path fill-rule="evenodd"
            d="M17.531 12.35c-.334.24-.44.741-.149 1.032a.874.874 0 010 1.236l-.175.175a1 1 0 000 1.414l.086.086a1 1 0 010 1.414l-.94.94a.5.5 0 01-.707 0l-1.353-1.354a1 1 0 01-.293-.707v-3.923a3.5 3.5 0 113.531-.312zM15.5 8a1 1 0 110 2 1 1 0 010-2z" />
        <path
            d="M11.5 5.556C11.5 7.519 9.933 9.11 8 9.11S4.5 7.52 4.5 5.556C4.5 3.592 6.067 2 8 2s3.5 1.592 3.5 3.556zM3.625 18C2.175 18 1 16.806 1 15.333c0-1.472 1.313-4.444 7-4.444 1.08 0 2.004.107 2.79.291a5.012 5.012 0 001.71 2.32v4.497a2.591 2.591 0 01-.125.003h-8.75z" />
    </g>
</svg>