<?xml version="1.0" standalone="no"?>
<!DOCTYPE svg PUBLIC "-//W3C//DTD SVG 20010904//EN"
 "http://www.w3.org/TR/2001/REC-SVG-20010904/DTD/svg10.dtd">
<svg version="1.0" xmlns="http://www.w3.org/2000/svg"
 width="24.000000pt" height="24.000000pt" viewBox="0 0 24.000000 24.000000"
 preserveAspectRatio="xMidYMid meet">

<g transform="translate(0.000000,24.000000) scale(0.100000,-0.100000)"
fill="#000000" stroke="none">
<path d="M40 185 c-15 -18 -10 -45 13 -59 34 -22 73 27 47 59 -16 19 -44 19
-60 0z"/>
<path d="M130 185 c-15 -18 -10 -45 13 -59 34 -22 73 27 47 59 -16 19 -44 19
-60 0z"/>
<path d="M27 92 c-26 -29 -22 -52 11 -52 22 0 29 6 38 35 10 33 10 35 -11 35
-12 0 -29 -8 -38 -18z"/>
<path d="M110 90 c-38 -38 -27 -50 50 -50 56 0 70 3 70 15 0 25 -38 55 -70 55
-17 0 -39 -9 -50 -20z"/>
</g>
</svg>
